<svg t="1692341567291" class="icon" viewBox="0 0 1024 1024" version="1.1" xmlns="http://www.w3.org/2000/svg" p-id="1119" width="200" height="200"><path d="M679.6 358.6m-103.9 0a103.9 103.9 0 1 0 207.8 0 103.9 103.9 0 1 0-207.8 0Z" p-id="1120"></path><path d="M885.4 354.2c-20.4-48.3-49.6-91.6-86.8-128.8-37.2-37.2-80.5-66.4-128.8-86.8-50-21.1-103.1-31.9-157.8-31.9s-107.8 10.7-157.8 31.9c-48.3 20.4-91.6 49.6-128.8 86.8-37.2 37.2-66.4 80.5-86.8 128.8-21.1 50-31.9 103.1-31.9 157.8s10.7 107.8 31.9 157.8c20.4 48.3 49.6 91.6 86.8 128.8 37.2 37.2 80.5 66.4 128.8 86.8 50 21.1 103.1 31.9 157.8 31.9s107.8-10.7 157.8-31.9c48.3-20.4 91.6-49.6 128.8-86.8S865 718 885.4 669.8c21.1-50 31.9-103.1 31.9-157.8s-10.7-107.8-31.9-157.8z m-129.3-86.3C814.2 326 849 401.1 855.9 482H737.6c-6.1-50.1-28.6-96.5-64.9-132.8-35.8-35.8-81.4-58.1-130.7-64.6V168c80.9 6.9 156.1 41.8 214.1 99.9zM482 423.8c-27.3 9.3-48.9 30.9-58.2 58.2H347c11.7-69.2 66-124.1 135-136.6v78.4zM423.8 542c9.3 27.3 30.9 48.9 58.2 58.2v74.4c-67.6-12.3-121.1-65.3-134.2-132.6h76zM542 600.2c27.3-9.3 48.9-30.9 58.2-58.2h76.1c-13.1 67.3-66.7 120.3-134.2 132.6v-74.4zM600.2 482c-9.3-27.3-30.9-48.9-58.2-58.2v-78.5c68.9 12.5 123.3 67.4 135 136.6h-76.8zM267.9 267.9C326 209.8 401.1 175 482 168.1v116.6c-49.3 6.5-95 28.8-130.7 64.6-36.3 36.3-58.8 82.6-64.9 132.8H168c6.9-81 41.8-156.2 99.9-214.2z m0 488.2c-58.1-58-93-133.2-99.9-214.1h118.9c6.8 48.6 29.1 93.4 64.3 128.7 35.8 35.8 81.4 58.1 130.7 64.6V856c-80.8-6.9-156-41.8-214-99.9z m488.2 0c-58 58.1-133.2 93-214.1 99.9V735.3c49.3-6.5 95-28.8 130.7-64.6C708 635.4 730.2 590.6 737 542h119c-6.9 80.9-41.8 156.1-99.9 214.1z" p-id="1121"></path></svg>